<?xml version="1.0" standalone="no"?>
<!DOCTYPE svg PUBLIC "-//W3C//DTD SVG 20010904//EN"
 "http://www.w3.org/TR/2001/REC-SVG-20010904/DTD/svg10.dtd">
<svg version="1.0" xmlns="http://www.w3.org/2000/svg"
 width="700.000000pt" height="700.000000pt" viewBox="0 0 700.000000 700.000000"
 preserveAspectRatio="xMidYMid meet">
<metadata>
Created by potrace 1.11, written by Peter Selinger 2001-2013
</metadata>
<g transform="translate(0.000000,700.000000) scale(0.100000,-0.100000)"
fill="#000000" stroke="none">
<path d="M3338 6995 c-2 -1 -38 -5 -80 -9 -43 -4 -83 -8 -90 -11 -7 -2 -37 -6
-66 -9 -29 -4 -101 -18 -159 -31 -548 -130 -1043 -419 -1343 -785 -109 -132
-255 -379 -306 -515 -64 -170 -101 -325 -119 -500 -5 -47 -6 -285 -1 -335 8
-89 19 -176 22 -181 2 -3 6 -21 9 -40 14 -79 64 -245 97 -319 108 -243 190
-363 433 -635 176 -196 283 -334 379 -488 162 -259 266 -511 281 -675 4 -46 2
-53 -18 -63 -12 -7 -41 -31 -65 -53 -148 -141 -164 -391 -36 -563 l24 -31 -39
-59 c-48 -72 -71 -147 -71 -233 0 -135 48 -241 148 -329 43 -38 53 -52 45 -63
-19 -24 -43 -112 -47 -173 -7 -116 37 -246 108 -313 77 -75 201 -129 320 -139
34 -2 64 -8 67 -11 4 -4 19 -29 34 -57 99 -181 293 -321 497 -360 67 -12 224
-13 282 0 211 44 412 197 505 382 20 40 24 43 64 44 23 0 49 2 57 4 90 20 123
31 174 58 82 43 150 110 181 178 51 113 52 257 2 371 l-17 36 51 42 c154 130
194 343 99 531 -13 24 -25 46 -29 49 -31 26 -32 38 -1 82 52 75 77 149 79 241
3 146 -52 266 -162 347 l-47 35 5 50 c23 208 181 549 384 825 54 74 214 270
263 321 320 339 468 609 553 1009 1 8 6 44 10 80 4 36 9 74 11 85 5 25 5 297
-1 349 -9 97 -18 149 -46 261 -81 336 -249 632 -501 887 -268 270 -651 490
-1063 611 -161 47 -247 65 -385 83 -30 4 -66 9 -80 11 -28 4 -407 12 -412 8z
m357 -589 c22 -3 63 -8 90 -12 28 -3 66 -9 85 -14 19 -5 46 -11 60 -13 184
-33 516 -175 699 -301 140 -96 195 -146 348 -320 29 -33 123 -188 155 -256 78
-166 111 -316 112 -515 1 -125 -8 -247 -20 -266 -2 -4 -6 -24 -10 -45 -12 -74
-63 -199 -134 -331 -38 -69 -128 -183 -236 -299 -150 -161 -185 -201 -252
-286 -308 -389 -501 -788 -556 -1153 -5 -27 -9 -59 -11 -70 -2 -11 -4 -26 -4
-32 -1 -10 -112 -13 -521 -13 l-519 0 -6 38 c-51 339 -150 605 -336 904 -47
76 -186 276 -199 288 -3 3 -33 39 -67 80 -71 87 -79 96 -195 221 -48 52 -103
112 -123 134 -40 45 -129 176 -168 246 -39 71 -93 226 -107 304 -7 39 -16 84
-20 102 -13 51 -3 321 14 405 73 368 324 708 676 917 64 38 274 138 345 164
71 27 223 74 260 81 11 2 58 11 105 20 47 9 123 19 170 23 47 3 86 7 88 8 4 4
235 -4 277 -9z"/>
<path d="M3444 5675 c-113 -49 -117 -206 -6 -264 12 -7 55 -14 95 -17 40 -2
86 -6 102 -9 17 -3 48 -7 69 -11 62 -9 208 -60 289 -99 136 -66 218 -163 232
-275 13 -98 17 -111 42 -136 54 -54 125 -64 183 -27 60 39 75 80 66 178 -12
132 -58 232 -154 336 -131 141 -291 235 -495 288 -156 41 -369 59 -423 36z"/>
</g>
</svg>
